<?xml version="1.0" encoding="UTF-8"?>
<svg version="1.1" viewBox="0 0 451.1 430.32" xmlns="http://www.w3.org/2000/svg">
 <g fill="currentColor" transform="translate(-204.02 -416.71)">
  <g fill="none" stroke="currentColor" stroke-miterlimit="10">
   <path transform="matrix(1.3333 0 0 -1.3333 264.02 801.95)" d="m0 0h255.12m-255.12 28.347h255.12m-255.12 28.347h255.12m-255.12 28.347h255.12m-255.12 28.347h255.12m-255.12 28.347h255.12m-255.12 28.347h255.12m-255.12 28.347h255.12m-255.12 28.347h255.12m-255.12 28.337h255.12m-255.12-255.11v255.12m28.347-255.12v255.12m28.347-255.12v255.12m28.347-255.12v255.12m28.347-255.12v255.12m28.347-255.12v255.12m28.347-255.12v255.12m28.347-255.12v255.12m28.347-255.12v255.12m28.337-255.12v255.12" stroke-width=".19925"/>
   <g stroke-width="1.4173">
    <path transform="matrix(1.3333 0 0 -1.3333 264.02 801.95)" d="m0 0v255.12m0-255.12h255.12"/>
    <path transform="matrix(1.3333 0 0 -1.3333 264.02 801.95)" d="m0 0v255.12m0-170.08h255.12"/>
    <path transform="matrix(1.3333 0 0 -1.3333 264.02 801.95)" d="m0 0v255.12m0-85.04h255.12"/>
    <path transform="matrix(1.3333 0 0 -1.3333 264.02 801.95)" d="m0 0v255.12h255.12"/>
    <path transform="matrix(1.3333 0 0 -1.3333 264.02 801.95)" d="m85.04 0v255.12m-85.04-255.12h255.12"/>
    <path transform="matrix(1.3333 0 0 -1.3333 264.02 801.95)" d="m85.04 0v255.12m-85.04-170.08h255.12"/>
    <path transform="matrix(1.3333 0 0 -1.3333 264.02 801.95)" d="m85.04 0v255.12m-85.04-85.04h255.12"/>
    <path transform="matrix(1.3333 0 0 -1.3333 264.02 801.95)" d="m85.04 0v255.12m-85.04 0h255.12"/>
    <path transform="matrix(1.3333 0 0 -1.3333 264.02 801.95)" d="m170.08 0v255.12m-170.08-255.12h255.12"/>
    <path transform="matrix(1.3333 0 0 -1.3333 264.02 801.95)" d="m170.08 0v255.12m-170.08-170.08h255.12"/>
    <path transform="matrix(1.3333 0 0 -1.3333 264.02 801.95)" d="m170.08 0v255.12m-170.08-85.04h255.12"/>
    <path transform="matrix(1.3333 0 0 -1.3333 264.02 801.95)" d="m170.08 0v255.12m-170.08 0h255.12"/>
    <path transform="matrix(1.3333 0 0 -1.3333 264.02 801.95)" d="m255.12 0v255.12m-255.12-255.12h255.12"/>
    <path transform="matrix(1.3333 0 0 -1.3333 264.02 801.95)" d="m255.12 0v255.12m-255.12-170.08h255.12"/>
    <path transform="matrix(1.3333 0 0 -1.3333 264.02 801.95)" d="m255.12 0v255.12m-255.12-85.04h255.12"/>
    <path transform="matrix(1.3333 0 0 -1.3333 264.02 801.95)" d="m255.12 0v255.12m-255.12 0h255.12"/>
   </g>
  </g>
  <path transform="matrix(1.3333 0 0 -1.3333 264.02 801.95)" d="m-9.8291 170.35c-2.3911 1.1955-3.521 3.7178-3.521 7.7029 0 0.78903-1.1955 0.78903-1.1955 0 0-3.9851 2.0581-7.0421 4.4492-8.2376 0.35288-0.17644 0.62018 0.35822 0.26732 0.53466"/>
  <path transform="matrix(1.3333 0 0 -1.3333 264.02 801.95)" d="m-18.067 212.33c2.3911-1.1955 3.521-3.7178 3.521-7.7029 0-0.78904 1.1955-0.78904 1.1955 0 0 3.9851-2.0581 7.0421-4.4492 8.2376-0.35287 0.17642-0.62018-0.35824-0.26732-0.53468"/>
  <path transform="matrix(1.3333 0 0 -1.3333 264.02 801.95)" d="m-13.948 178.05v26.58" fill="none" stroke="currentColor" stroke-miterlimit="10" stroke-width="1.1955"/>
  <path transform="matrix(1.3333 0 0 -1.3333 264.02 801.95)" d="m-17.799 212.33c2.3911 1.1955 4.4492 4.2524 4.4492 8.2376 0 0.78905-1.1955 0.78905-1.1955 0 0-3.9851-1.1299-6.5074-3.521-7.7029-0.35286-0.17644-0.08555-0.7111 0.26732-0.53468"/>
  <path transform="matrix(1.3333 0 0 -1.3333 264.02 801.95)" d="m-10.096 255.39c-2.3911-1.1955-4.4492-4.2524-4.4492-8.2376 0-0.78903 1.1955-0.78903 1.1955 0 0 3.9851 1.1299 6.5074 3.521 7.7029 0.35286 0.17644 0.08556 0.71109-0.26732 0.53465"/>
  <path transform="matrix(1.3333 0 0 -1.3333 264.02 801.95)" d="m-13.948 220.57v26.58" fill="none" stroke="currentColor" stroke-miterlimit="10" stroke-width="1.1955"/>
  <g transform="matrix(1.3333 0 0 1.3333 202.71 521.81)" aria-label="(0,0)">
   <path d="m3.2932 2.3901c0-0.035156 0-0.046875-0.16406-0.22266-1.2422-1.2539-1.5703-3.1289-1.5703-4.6641 0-1.7227 0.38672-3.457 1.6055-4.7109 0.12891-0.11719 0.12891-0.12891 0.12891-0.16406 0-0.070312-0.035156-0.10547-0.09375-0.10547-0.10547 0-0.99609 0.67969-1.582 1.9453-0.51562 1.1016-0.63281 2.2031-0.63281 3.0352 0 0.78516 0.11719 1.9922 0.65625 3.1172 0.59766 1.2188 1.4531 1.875 1.5586 1.875 0.058594 0 0.09375-0.035156 0.09375-0.10547zm5.1621-5.5781c0-0.79688-0.046875-1.5938-0.39844-2.332-0.45703-0.96094-1.2773-1.1133-1.6875-1.1133-0.59766 0-1.3359 0.25781-1.7344 1.1836-0.32812 0.69141-0.375 1.4648-0.375 2.2617 0 0.75 0.046875 1.6406 0.44531 2.4023 0.43359 0.80859 1.1602 1.0078 1.6523 1.0078 0.53906 0 1.2891-0.21094 1.7344-1.1602 0.31641-0.69141 0.36328-1.4648 0.36328-2.25zm-2.0977 3.1875c-0.38672 0-0.98438-0.24609-1.1602-1.207-0.10547-0.59766-0.10547-1.5117-0.10547-2.0977 0-0.64453 0-1.3008 0.082031-1.8398 0.1875-1.1836 0.92578-1.2656 1.1836-1.2656 0.32812 0 0.98438 0.17578 1.1719 1.1602 0.09375 0.5625 0.09375 1.3125 0.09375 1.9453 0 0.75 0 1.418-0.10547 2.0625-0.15234 0.9375-0.71484 1.2422-1.1602 1.2422z"/>
   <path d="m10.884-0.012273c0-0.65625-0.25781-1.043-0.64453-1.043-0.32813 0-0.52734 0.24609-0.52734 0.52734 0 0.26953 0.19922 0.52734 0.52734 0.52734 0.11719 0 0.24609-0.035156 0.35156-0.12891 0.02344-0.023438 0.03516-0.035156 0.04687-0.035156 0.01172 0 0.02344 0.011719 0.02344 0.15234 0 0.73828-0.35156 1.3359-0.67969 1.6641-0.10547 0.10547-0.10547 0.12891-0.10547 0.16406 0 0.070312 0.046875 0.10547 0.09375 0.10547 0.11719 0 0.91406-0.76172 0.91406-1.9336z"/>
   <path d="m17.865-3.1881c0-0.79688-0.04687-1.5938-0.39844-2.332-0.45703-0.96094-1.2773-1.1133-1.6875-1.1133-0.59766 0-1.3359 0.25781-1.7344 1.1836-0.32812 0.69141-0.375 1.4648-0.375 2.2617 0 0.75 0.04687 1.6406 0.44531 2.4023 0.43359 0.80859 1.1602 1.0078 1.6523 1.0078 0.53906 0 1.2891-0.21094 1.7344-1.1602 0.31641-0.69141 0.36328-1.4648 0.36328-2.25zm-2.0977 3.1875c-0.38672 0-0.98438-0.24609-1.1602-1.207-0.10547-0.59766-0.10547-1.5117-0.10547-2.0977 0-0.64453 0-1.3008 0.08203-1.8398 0.1875-1.1836 0.92578-1.2656 1.1836-1.2656 0.32812 0 0.98438 0.17578 1.1719 1.1602 0.09375 0.5625 0.09375 1.3125 0.09375 1.9453 0 0.75 0 1.418-0.10547 2.0625-0.15234 0.9375-0.71484 1.2422-1.1602 1.2422zm5.3789-2.4961c0-0.77344-0.11719-1.9805-0.65625-3.1055-0.59766-1.2188-1.4648-1.875-1.5586-1.875-0.05859 0-0.10547 0.046875-0.10547 0.10547 0 0.035156 0 0.046875 0.19922 0.23438 0.97266 0.98438 1.5352 2.5664 1.5352 4.6406 0 1.7109-0.36328 3.457-1.5938 4.7227-0.14062 0.11719-0.14062 0.12891-0.14062 0.16406 0 0.058594 0.04687 0.10547 0.10547 0.10547 0.09375 0 0.99609-0.67969 1.582-1.9453 0.50391-1.1016 0.63281-2.2031 0.63281-3.0469z"/>
  </g>
  <path transform="matrix(1.3333 0 0 -1.3333 264.02 801.95)" d="m85.308 264.95c1.1955 2.3911 3.7178 3.521 7.7029 3.521 0.78904 0 0.78904 1.1956 0 1.1956-3.9851 0-7.0421-2.0581-8.2375-4.4492-0.17644-0.35288 0.35822-0.6202 0.53465-0.26732"/>
  <path transform="matrix(1.3333 0 0 -1.3333 264.02 801.95)" d="m127.29 273.19c-1.1955-2.3911-3.7178-3.521-7.7029-3.521-0.78903 0-0.78903-1.1956 0-1.1956 3.9851 0 7.0421 2.0581 8.2376 4.4492 0.17644 0.35288-0.35822 0.62018-0.53466 0.26732"/>
  <path transform="matrix(1.3333 0 0 -1.3333 264.02 801.95)" d="m93.011 269.07h26.58" fill="none" stroke="currentColor" stroke-miterlimit="10" stroke-width="1.1955"/>
  <path transform="matrix(1.3333 0 0 -1.3333 264.02 801.95)" d="m127.29 272.92c1.1955-2.3911 4.2524-4.4492 8.2375-4.4492 0.78905 0 0.78905 1.1956 0 1.1956-3.9851 0-6.5074 1.1299-7.7029 3.521-0.17644 0.35286-0.71109 0.0856-0.53466-0.26732"/>
  <path transform="matrix(1.3333 0 0 -1.3333 264.02 801.95)" d="m170.35 265.22c-1.1955 2.3911-4.2524 4.4492-8.2375 4.4492-0.78904 0-0.78904-1.1956 0-1.1956 3.9851 0 6.5074-1.1299 7.7029-3.521 0.17644-0.35288 0.71109-0.0856 0.53466 0.26732"/>
  <path transform="matrix(1.3333 0 0 -1.3333 264.02 801.95)" d="m135.53 269.07h26.58" fill="none" stroke="currentColor" stroke-miterlimit="10" stroke-width="1.1955"/>
  <g transform="matrix(1.3333 0 0 1.3333 419.34 426.68)" aria-label="(0,1)">
   <path d="m3.2929 2.3913c0-0.035156 0-0.046875-0.16406-0.22266-1.2422-1.2539-1.5703-3.1289-1.5703-4.6641 0-1.7227 0.38672-3.457 1.6055-4.7109 0.12891-0.11719 0.12891-0.12891 0.12891-0.16406 0-0.070312-0.035156-0.10547-0.09375-0.10547-0.10547 0-0.99609 0.67969-1.582 1.9453-0.51562 1.1016-0.63281 2.2031-0.63281 3.0352 0 0.78516 0.11719 1.9922 0.65625 3.1172 0.59766 1.2188 1.4531 1.875 1.5586 1.875 0.058594 0 0.09375-0.035156 0.09375-0.10547zm5.165-5.5781c0-0.79688-0.046875-1.5938-0.39844-2.332-0.45703-0.96094-1.2773-1.1133-1.6875-1.1133-0.59766 0-1.3359 0.25781-1.7344 1.1836-0.32812 0.69141-0.375 1.4648-0.375 2.2617 0 0.75 0.046875 1.6406 0.44531 2.4023 0.43359 0.80859 1.1602 1.0078 1.6523 1.0078 0.53906 0 1.2891-0.21094 1.7344-1.1602 0.31641-0.69141 0.36328-1.4648 0.36328-2.25zm-2.0977 3.1875c-0.38672 0-0.98438-0.24609-1.1602-1.207-0.10547-0.59766-0.10547-1.5117-0.10547-2.0977 0-0.64453 0-1.3008 0.082031-1.8398 0.1875-1.1836 0.92578-1.2656 1.1836-1.2656 0.32812 0 0.98438 0.17578 1.1719 1.1602 0.09375 0.5625 0.09375 1.3125 0.09375 1.9453 0 0.75 0 1.418-0.10547 2.0625-0.15234 0.9375-0.71484 1.2422-1.1602 1.2422z"/>
   <path d="m10.884-0.011023c0-0.65625-0.25781-1.043-0.64453-1.043-0.32813 0-0.52734 0.24609-0.52734 0.52734 0 0.26953 0.19922 0.52734 0.52734 0.52734 0.11719 0 0.24609-0.035156 0.35156-0.12891 0.02344-0.023438 0.03516-0.035156 0.04687-0.035156 0.01172 0 0.02344 0.011719 0.02344 0.15234 0 0.73828-0.35156 1.3359-0.67969 1.6641-0.10547 0.10547-0.10547 0.12891-0.10547 0.16406 0 0.070312 0.046875 0.10547 0.09375 0.10547 0.11719 0 0.91406-0.76172 0.91406-1.9336z"/>
   <path d="m16.213-6.3743c0-0.23438 0-0.25781-0.23438-0.25781-0.60938 0.63281-1.4883 0.63281-1.8047 0.63281v0.31641c0.19922 0 0.78516 0 1.3008-0.25781v5.1562c0 0.35156-0.03516 0.48047-0.92578 0.48047h-0.31641v0.30469c0.35156-0.035156 1.207-0.035156 1.6055-0.035156 0.39844 0 1.2656 0 1.6172 0.035156v-0.30469h-0.31641c-0.90234 0-0.92578-0.11719-0.92578-0.48047zm4.9365 3.8789c0-0.77344-0.11719-1.9805-0.65625-3.1055-0.59766-1.2188-1.4648-1.875-1.5586-1.875-0.05859 0-0.10547 0.046875-0.10547 0.10547 0 0.035156 0 0.046875 0.19922 0.23438 0.97266 0.98438 1.5352 2.5664 1.5352 4.6406 0 1.7109-0.36328 3.457-1.5938 4.7227-0.14062 0.11719-0.14062 0.12891-0.14062 0.16406 0 0.058594 0.04687 0.10547 0.10547 0.10547 0.09375 0 0.99609-0.67969 1.582-1.9453 0.50391-1.1016 0.63281-2.2031 0.63281-3.0469z"/>
  </g>
  <path transform="matrix(1.3333 0 0 -1.3333 264.02 801.95)" d="m169.81-10.096c1.1955-2.3911 4.2524-4.4492 8.2376-4.4492 0.78903 0 0.78903 1.1955 0 1.1955-3.9851 0-6.5074 1.1299-7.7029 3.521-0.17644 0.35286-0.7111 0.08556-0.53466-0.26732"/>
  <path transform="matrix(1.3333 0 0 -1.3333 264.02 801.95)" d="m212.87-17.799c-1.1955 2.3911-4.2524 4.4492-8.2376 4.4492-0.78904 0-0.78904-1.1955 0-1.1955 3.9851 0 6.5074-1.1299 7.7029-3.521 0.17644-0.35286 0.7111-0.08555 0.53468 0.26732"/>
  <path transform="matrix(1.3333 0 0 -1.3333 264.02 801.95)" d="m178.05-13.948h26.58" fill="none" stroke="currentColor" stroke-miterlimit="10" stroke-width="1.1955"/>
  <path transform="matrix(1.3333 0 0 -1.3333 264.02 801.95)" d="m212.87-18.067c1.1955 2.3911 3.7178 3.521 7.7029 3.521 0.78905 0 0.78905 1.1955 0 1.1955-3.9851 0-7.042-2.0581-8.2376-4.4492-0.17642-0.35287 0.35824-0.62018 0.53468-0.26732"/>
  <path transform="matrix(1.3333 0 0 -1.3333 264.02 801.95)" d="m254.85-9.8291c-1.1955-2.3911-3.7178-3.521-7.7029-3.521-0.78903 0-0.78903-1.1955 0-1.1955 3.9851 0 7.0421 2.0581 8.2376 4.4492 0.17644 0.35288-0.35821 0.62018-0.53465 0.26732"/>
  <path transform="matrix(1.3333 0 0 -1.3333 264.02 801.95)" d="m220.57-13.948h26.58" fill="none" stroke="currentColor" stroke-miterlimit="10" stroke-width="1.1955"/>
  <g transform="matrix(1.3333 0 0 1.3333 532.73 843.71)" aria-label="(2,2)">
   <path d="m3.2939 2.3909c0-0.035156 0-0.046875-0.16406-0.22266-1.2422-1.2539-1.5703-3.1289-1.5703-4.6641 0-1.7227 0.38672-3.457 1.6055-4.7109 0.12891-0.11719 0.12891-0.12891 0.12891-0.16406 0-0.070312-0.035156-0.10547-0.09375-0.10547-0.10547 0-0.99609 0.67969-1.582 1.9453-0.51562 1.1016-0.63281 2.2031-0.63281 3.0352 0 0.78516 0.11719 1.9922 0.65625 3.1172 0.59766 1.2188 1.4531 1.875 1.5586 1.875 0.058594 0 0.09375-0.035156 0.09375-0.10547zm1.8457-3.1523 1.0547-1.0312c1.5586-1.3711 2.1562-1.9102 2.1562-2.9062 0-1.1367-0.90234-1.9336-2.1211-1.9336-1.125 0-1.8516 0.91406-1.8516 1.8047 0 0.55078 0.49219 0.55078 0.52734 0.55078 0.16406 0 0.51562-0.11719 0.51562-0.52734 0-0.25781-0.1875-0.51562-0.52734-0.51562-0.082031 0-0.10547 0-0.12891 0.011719 0.22266-0.64453 0.76172-1.0195 1.3359-1.0195 0.91406 0 1.3359 0.80859 1.3359 1.6289 0 0.79688-0.49219 1.582-1.043 2.2031l-1.9102 2.1328c-0.10547 0.10547-0.10547 0.12891-0.10547 0.36328h3.6914l0.28125-1.7344h-0.25781c-0.046875 0.30469-0.11719 0.73828-0.21094 0.89063-0.070312 0.082031-0.72656 0.082031-0.94922 0.082031z"/>
   <path d="m10.885-0.011445c0-0.65625-0.25781-1.043-0.64453-1.043-0.32813 0-0.52734 0.24609-0.52734 0.52734 0 0.26953 0.19922 0.52734 0.52734 0.52734 0.11719 0 0.24609-0.035156 0.35156-0.12891 0.02344-0.023438 0.03516-0.035156 0.04687-0.035156 0.01172 0 0.02344 0.011719 0.02344 0.15234 0 0.73828-0.35156 1.3359-0.67969 1.6641-0.10547 0.10547-0.10547 0.12891-0.10547 0.16406 0 0.070312 0.046875 0.10547 0.09375 0.10547 0.11719 0 0.91406-0.76172 0.91406-1.9336z"/>
   <path d="m14.55-0.76145 1.0547-1.0312c1.5586-1.3711 2.1562-1.9102 2.1562-2.9062 0-1.1367-0.90234-1.9336-2.1211-1.9336-1.125 0-1.8516 0.91406-1.8516 1.8047 0 0.55078 0.49219 0.55078 0.52734 0.55078 0.16406 0 0.51562-0.11719 0.51562-0.52734 0-0.25781-0.1875-0.51562-0.52734-0.51562-0.08203 0-0.10547 0-0.12891 0.011719 0.22266-0.64453 0.76172-1.0195 1.3359-1.0195 0.91406 0 1.3359 0.80859 1.3359 1.6289 0 0.79688-0.49219 1.582-1.043 2.2031l-1.9102 2.1328c-0.10547 0.10547-0.10547 0.12891-0.10547 0.36328h3.6914l0.28125-1.7344h-0.25781c-0.04687 0.30469-0.11719 0.73828-0.21094 0.89063-0.07031 0.082031-0.72656 0.082031-0.94922 0.082031zm6.5977-1.7344c0-0.77344-0.11719-1.9805-0.65625-3.1055-0.59766-1.2188-1.4648-1.875-1.5586-1.875-0.05859 0-0.10547 0.046875-0.10547 0.10547 0 0.035156 0 0.046875 0.19922 0.23438 0.97266 0.98438 1.5352 2.5664 1.5352 4.6406 0 1.7109-0.36328 3.457-1.5938 4.7227-0.14062 0.11719-0.14062 0.12891-0.14062 0.16406 0 0.058594 0.04687 0.10547 0.10547 0.10547 0.09375 0 0.99609-0.67969 1.582-1.9453 0.50391-1.1016 0.63281-2.2031 0.63281-3.0469z"/>
  </g>
 </g>
</svg>
